<svg version="1" xmlns="http://www.w3.org/2000/svg" width="341.333" height="341.333" viewBox="0 0 256.000000 256.000000"><path d="M111.6 23.7C96.5 26.9 81.8 35.9 71 48.6c-5.7 6.7-12.4 20.3-13.7 27.9-.2 1.1-.6 2.7-.9 3.5-.9 2.1-1.2 19.9-.3 23.5 2.5 11.5 3.6 14.8 7.1 21.5 2.1 4.1 5.1 8.9 6.6 10.7 1.5 1.7 3.8 4.5 5.2 6.2 1.4 1.7 3 3.1 3.6 3.1.7 0 1.4.6 1.7 1.4.3.8 3.5 3.3 7.1 5.6l6.6 4.3-.2 30.1c-.3 27.7-.1 30.4 1.5 32.9 1.9 2.9 6.2 5.1 11 5.6.4.1.7.8.7 1.6 0 2.2 2.2 6.5 3.1 6 .4-.3 1-.1 1.3.4.3.5 1.5.7 2.6.4 2-.5 3.7.7 5.9 4.2.9 1.5 1.1 1.6.7.3-.6-2.1.2-4.8 1.5-4.8.5 0 .8.9.6 1.9-.1 1.1 0 1.9.3 1.8.3-.1 1.3.5 2.2 1.3 1.2 1.2 1.3 1.8.4 2.9-.9 1.2-.8 1.2 1 .1l2.2-1.3-2.2-1.9c-1.4-1.3-1.6-1.8-.6-1.7 2.2.3 5.1-1.2 4.4-2.2-.3-.5 0-.9.5-.9 1.6 0 1.3 1.6-.4 3-1.2 1-1.3 1.6-.5 2.4.8.8 1.5.6 2.4-.6 1-1.4 1.6-1.5 2.7-.5.7.7.5.2-.5-1.1-1.1-1.2-1.7-2.5-1.3-2.8.6-.6 4.7 3.2 4.6 4.3-.1 1.7 2.1 1.3 2.8-.4.3-1 1.1-2.2 1.7-2.6.6-.5.3-.6-.9-.2-2.3.7-2.5.8-4.2.6-.7 0-1.3-.5-1.3-1 0-.6 1.8-.9 4-.8 3.2.2 4.5-.3 6.4-2.3 1.4-1.4 2.6-3.6 2.8-4.9.1-1.3 1-2.5 1.8-2.7 4.4-.7 7.2-2.6 8.6-6 1.2-2.9 1.5-8.5 1.3-29.7 0-14.4-.1-27.4 0-28.9.1-2.2 1.2-3.5 5.6-6.3 15.8-10 28.2-28.4 31.5-46.4 1.1-6.4 1.4-20.1.5-24.1-.4-1.4-.9-4.2-1.2-6.3-.3-2.1-1-4-1.4-4.3-.5-.3-.9-1.6-.9-3 0-1.3-.4-2.4-1-2.4-.5 0-1-.6-1-1.4 0-3.3-9.4-16.8-15.6-22.7-9.8-9.1-22.6-15.8-34.9-18.5-6.3-1.3-24.1-1.2-30.9.3zM120 234c0 .5-.2 1-.4 1-.3 0-.8-.5-1.1-1-.3-.6-.1-1 .4-1 .6 0 1.1.4 1.1 1zm8.6.5c-.2.5-.9.9-1.6.7-.7-.1-1.8.3-2.6.9-1 .8-1.4.8-1.4 0 0-.6.5-1.1 1.1-1.1.5 0 .7-.4.4-1-.4-.6.5-.9 2-.8 1.4.1 2.3.7 2.1 1.3zm3.8 2c-.4.8-1.1 1.5-1.6 1.5-.6 0-.5-.6.2-1.5.7-.8 1.4-1.5 1.6-1.5.2 0 .1.7-.2 1.5zm7.6.5c0 .5-.5 1-1.1 1-.5 0-.7-.5-.4-1 .3-.6.8-1 1.1-1 .2 0 .4.4.4 1zM153.6 229.8c-.2.4-.1 1.4.4 2.2.7 1.1.9.9.7-.8-.1-2.4-.3-2.6-1.1-1.4zM156.7 230.1c.7.7 1.5 1 1.8.7.3-.3-.2-.9-1.2-1.2-1.4-.6-1.5-.5-.6.5z"/><path d="M106 231.1c0 .5-.5.7-1.1.3-.8-.4-.8-.1-.1 1.3 1.1 1.9 4.8 2.8 5.7 1.4.2-.5-.7-.7-2.1-.5-2 .2-2.4-.1-1.9-1.7.4-1 .4-1.9.1-1.9-.3 0-.6.5-.6 1.1zM147 231.8c0 .4.9.8 2 .9 1.1.1 2-.2 2-.5 0-.4-.9-.8-2-.9-1.1-.1-2 .2-2 .5zM95.5 232.9c-.6 1.1 1.3 2.6 2.2 1.7.4-.3.1-.6-.6-.6s-.9-.5-.6-1c.3-.6.4-1 .1-1-.3 0-.7.4-1.1.9zM103 233.9c0 .6.4 1.3 1 1.6.6.3.7-.1.4-.9-.7-1.8-1.4-2.1-1.4-.7zM144.1 235.2c-1.6 2.6-1.1 3 1.1.7 1-1 1.4-2 1-2.3-.5-.3-1.4.4-2.1 1.6zM99.3 235.4c0 .7.6 1.3 1.4 1.3.7 0 1.3-.4 1.3-.8s-.6-.9-1.3-1.2c-.8-.3-1.4 0-1.4.7zM114 235c-1.3.9-1.2 1.2.4 2.5 1 .8 2.3 1.2 2.7.9.5-.3.9 0 .9.7s.3.9.6.6c1.2-1.2-1.7-3.6-3.4-3-1.5.6-1.5.5-.3-1 1.5-1.9 1.3-2.1-.9-.7zM147.7 235.3c-.3.8-.2 2 .3 2.6.5.9.8.4.8-1.3 0-2.9-.3-3.2-1.1-1.3zM150.6 235.6c-.6 1.5-.4 1.5 1.1.3 1-.7 2-1.5 2.2-1.6.2-.2-.3-.3-1.1-.3-.9 0-1.9.7-2.2 1.6zM156.4 235.8c2.3 2.6 2.3 2.6 2.3.7 0-.8-.3-1.3-.5-1-.3.3-1.2-.1-2.1-.7-1-.8-.9-.4.3 1zM110.5 236c-.4.6-1.6.8-2.8.5-2-.5-2-.5-.3.6 1.4.9 2.1.8 3.4-.5.9-.9 1.3-1.6 1-1.6-.4 0-1 .5-1.3 1zM103.3 238.5c0 .8.4 1.2.9.9.4-.3.8-.9.8-1.5 0-.5-.4-.9-.8-.9-.5 0-.9.7-.9 1.5zM145.4 237.8c.7 1.2-.5 1.6-3.1 1.3-.7-.1-1.3.2-1.3.7 0 .4 1.1.8 2.5.8 2.6 0 4.1-2.1 2.3-3.2-.7-.4-.8-.3-.4.4zM110.6 239.6c-.5 1.4-.4 1.5.9.4 1.7-1.4 1.9-2 .6-2-.5 0-1.2.7-1.5 1.6zM107.6 240.7c-.6 1.4-.5 1.5.5.6.7-.7 1-1.5.7-1.8-.3-.3-.9.2-1.2 1.2zM113.6 239.8c-.3.5.1.9.9.9s1.2-.4.9-.9c-.3-.4-.7-.8-.9-.8-.2 0-.6.4-.9.8zM120.6 240.3c-1.6 1.2-1.6 1.3.3 1.3 1.1 0 1.8-.3 1.5-.7-.2-.4.2-1 .8-1.2.7-.3.8-.6.2-.6-.5-.1-1.8.5-2.8 1.2zM135.2 240.6c-.7.8-.8 1.4-.3 1.4 1 0 2.5-1.9 2-2.5-.2-.1-1 .3-1.7 1.1zM101 241.4c0 .2.7.7 1.6 1 .8.3 1.2.2.9-.4-.6-1-2.5-1.4-2.5-.6zM121.3 244.5c0 .8.4 1.2.9.9.5-.3.6-1 .3-1.5-.9-1.3-1.2-1.1-1.2.6zM140.5 244c-.3.6.1.7.9.4 1.8-.7 2.1-1.4.7-1.4-.6 0-1.3.4-1.6 1z"/></svg>